<?xml version="1.0" encoding="UTF-8" standalone="no"?>
<svg width="16px" height="4px" viewBox="0 0 16 4" version="1.1" xmlns="http://www.w3.org/2000/svg" xmlns:xlink="http://www.w3.org/1999/xlink">
    <!-- Generator: Sketch 3.7.2 (28276) - http://www.bohemiancoding.com/sketch -->
    <title>icon-more-options</title>
    <desc>Created with Sketch.</desc>
    <defs></defs>
    <g id="Page-1" stroke="none" stroke-width="1" fill="none" fill-rule="evenodd">
        <g id="Single-Page" transform="translate(-616.000000, -1687.000000)" fill="#86CAF4">
            <path d="M624.015,1687 C624.546333,1687 625.015,1687.203 625.421,1687.609 C625.827,1688.015 626.03,1688.48367 626.03,1689.015 C626.03,1689.54633 625.827,1690.015 625.421,1690.421 C625.015,1690.827 624.546333,1691.03 624.015,1691.03 C623.483667,1691.03 623.015,1690.827 622.609,1690.421 C622.203,1690.015 622,1689.54633 622,1689.015 C622,1688.48367 622.203,1688.015 622.609,1687.609 C623.015,1687.203 623.483667,1687 624.015,1687 L624.015,1687 Z M630.015,1687 C630.546333,1687 631.015,1687.203 631.421,1687.609 C631.827,1688.015 632.03,1688.48367 632.03,1689.015 C632.03,1689.54633 631.827,1690.015 631.421,1690.421 C631.015,1690.827 630.546333,1691.03 630.015,1691.03 C629.483667,1691.03 629.015,1690.827 628.609,1690.421 C628.203,1690.015 628,1689.54633 628,1689.015 C628,1688.48367 628.203,1688.015 628.609,1687.609 C629.015,1687.203 629.483667,1687 630.015,1687 L630.015,1687 Z M618.015,1687 C618.546333,1687 619.015,1687.203 619.421,1687.609 C619.827,1688.015 620.03,1688.48367 620.03,1689.015 C620.03,1689.54633 619.827,1690.015 619.421,1690.421 C619.015,1690.827 618.546333,1691.03 618.015,1691.03 C617.483667,1691.03 617.015,1690.827 616.609,1690.421 C616.203,1690.015 616,1689.54633 616,1689.015 C616,1688.48367 616.203,1688.015 616.609,1687.609 C617.015,1687.203 617.483667,1687 618.015,1687 L618.015,1687 Z" id="icon-more-options"></path>
        </g>
    </g>
</svg>