<?xml version="1.0" encoding="UTF-8" standalone="no"?>
<svg width="14px" height="14px" viewBox="0 0 14 14" version="1.1" xmlns="http://www.w3.org/2000/svg" xmlns:xlink="http://www.w3.org/1999/xlink">
    <!-- Generator: Sketch 3.7.2 (28276) - http://www.bohemiancoding.com/sketch -->
    <title>icon-add_box</title>
    <desc>Created with Sketch.</desc>
    <defs></defs>
    <g id="Page-1" stroke="none" stroke-width="1" fill="none" fill-rule="evenodd">
        <g id="Single-Page" transform="translate(-457.000000, -1995.000000)" fill="#86CAF4">
            <path d="M467.902111,2002.76533 L467.902111,2001.23389 L464.766889,2001.23389 L464.766889,1998.09867 L463.235444,1998.09867 L463.235444,2001.23389 L460.100222,2001.23389 L460.100222,2002.76533 L463.235444,2002.76533 L463.235444,2005.90056 L464.766889,2005.90056 L464.766889,2002.76533 L467.902111,2002.76533 L467.902111,2002.76533 Z M469.432778,1995 C469.846037,1995 470.210556,1995.15789 470.526333,1995.47367 C470.842111,1995.78944 471,1996.15396 471,1996.56722 L471,2007.432 C471,2007.84526 470.842111,2008.20978 470.526333,2008.52556 C470.210556,2008.84133 469.846037,2008.99922 469.432778,2008.99922 L458.568,2008.99922 C458.13037,2008.99922 457.75963,2008.84133 457.455778,2008.52556 C457.151926,2008.20978 457,2007.84526 457,2007.432 L457,1996.56722 C457,1996.15396 457.151926,1995.78944 457.455778,1995.47367 C457.75963,1995.15789 458.13037,1995 458.568,1995 L469.432778,1995 L469.432778,1995 Z" id="icon-add_box"></path>
        </g>
    </g>
</svg>