<?xml version="1.0" encoding="UTF-8" standalone="no"?>
<svg width="14px" height="14px" viewBox="0 0 14 14" version="1.1" xmlns="http://www.w3.org/2000/svg" xmlns:xlink="http://www.w3.org/1999/xlink">
    <!-- Generator: Sketch 3.8.2 (29753) - http://www.bohemiancoding.com/sketch -->
    <title>icon-schedule</title>
    <desc>Created with Sketch.</desc>
    <defs></defs>
    <g id="Page-1" stroke="none" stroke-width="1" fill="none" fill-rule="evenodd">
        <g id="Single-Page" transform="translate(-296.000000, -2222.000000)" fill="#F7BB7D">
            <g id="Week-View" transform="translate(235.000000, 1722.000000)">
                <path d="M68.3612,503.4888 L68.3612,507.1638 L71.5112,509.0342 L70.9862,509.9204 L67.3112,507.6888 L67.3112,503.4888 L68.3612,503.4888 L68.3612,503.4888 Z M68,512.6112 C69.5311333,512.6112 70.849,512.0589 71.9536,510.9543 C73.0582,509.8497 73.6105,508.531833 73.6105,507.0007 C73.6105,505.469567 73.0582,504.1517 71.9536,503.0471 C70.849,501.9425 69.5311333,501.3902 68,501.3902 C66.4688667,501.3902 65.151,501.9425 64.0464,503.0471 C62.9418,504.1517 62.3895,505.469567 62.3895,507.0007 C62.3895,508.531833 62.9418,509.8497 64.0464,510.9543 C65.151,512.0589 66.4688667,512.6112 68,512.6112 L68,512.6112 Z M68,500.0112 C69.925,500.0112 71.5711667,500.694867 72.9385,502.0622 C74.3058333,503.429533 74.9895,505.0757 74.9895,507.0007 C74.9895,508.9257 74.3058333,510.571867 72.9385,511.9392 C71.5711667,513.306533 69.925,513.9902 68,513.9902 C66.075,513.9902 64.4288333,513.306533 63.0615,511.9392 C61.6941667,510.571867 61.0105,508.9257 61.0105,507.0007 C61.0105,505.0757 61.6941667,503.429533 63.0615,502.0622 C64.4288333,500.694867 66.075,500.0112 68,500.0112 L68,500.0112 Z" id="icon-schedule"></path>
            </g>
        </g>
    </g>
</svg>